<svg width="47" height="53" viewBox="0 0 47 53" fill="none" xmlns="http://www.w3.org/2000/svg">
<path d="M12.6504 22.2656H10.6416C9.78939 22.2656 9.17513 22.0498 8.79883 21.6182C8.42253 21.1755 8.23438 20.5944 8.23438 19.875C8.23438 18.2812 9.42415 17.4844 11.8037 17.4844C14.0394 17.4844 15.7217 17.8164 16.8506 18.4805L15.8877 19.2109C15.113 18.8568 13.7516 18.6797 11.8037 18.6797C10.8519 18.6797 10.21 18.7848 9.87793 18.9951C9.55697 19.2054 9.39648 19.4987 9.39648 19.875C9.39648 20.2513 9.48503 20.5446 9.66211 20.7549C9.83919 20.9652 10.1657 21.0703 10.6416 21.0703H12.7002C14.1943 21.0703 15.5391 21.3249 16.7344 21.834C17.9408 22.3431 18.9313 23.0404 19.7061 23.9258C20.4808 24.8001 21.0729 25.8128 21.4824 26.9639C21.8919 28.1038 22.0967 29.3268 22.0967 30.6328C22.0967 31.6953 21.9473 32.7025 21.6484 33.6543C21.3496 34.6061 20.8958 35.4805 20.2871 36.2773C19.6895 37.0742 18.9645 37.766 18.1123 38.3525C17.2712 38.9281 16.264 39.3763 15.0908 39.6973C13.9287 40.0293 12.667 40.1953 11.3057 40.1953C9.1696 40.1953 7.16634 39.8688 5.2959 39.2158C3.43652 38.5739 1.88704 37.6719 0.647461 36.5098L1.61035 35.7959C2.73926 36.8141 4.15039 37.6055 5.84375 38.1699C7.54818 38.7233 9.36882 39 11.3057 39C12.8219 39 14.1888 38.7842 15.4062 38.3525C16.6348 37.9098 17.6419 37.3066 18.4277 36.543C19.2246 35.7793 19.8333 34.8939 20.2539 33.8867C20.6855 32.8796 20.9014 31.7949 20.9014 30.6328C20.9014 29.0944 20.5915 27.7054 19.9717 26.4658C19.3519 25.2152 18.4056 24.2025 17.1328 23.4277C15.8711 22.653 14.377 22.2656 12.6504 22.2656ZM10.6416 23.4609H12.5342C14.7809 23.4609 16.5352 24.1471 17.7969 25.5195C19.0697 26.8919 19.7061 28.5964 19.7061 30.6328C19.7061 32.7025 18.9701 34.418 17.498 35.7793C16.026 37.1296 13.9619 37.8047 11.3057 37.8047C9.53483 37.8047 7.88021 37.5612 6.3418 37.0742C4.80339 36.5872 3.52507 35.901 2.50684 35.0156L3.43652 34.2686C4.34408 35.0101 5.48405 35.5856 6.85645 35.9951C8.23991 36.4046 9.72298 36.6094 11.3057 36.6094C13.641 36.6094 15.4229 36.0505 16.6514 34.9326C17.891 33.8148 18.5107 32.3815 18.5107 30.6328C18.5107 28.9062 17.9906 27.4785 16.9502 26.3496C15.9209 25.2207 14.4434 24.6562 12.5176 24.6562H10.6416C9.02572 24.6562 7.8138 24.2135 7.00586 23.3281C6.19792 22.4427 5.79395 21.2917 5.79395 19.875C5.79395 18.4583 6.29199 17.3073 7.28809 16.4219C8.29525 15.5365 9.80046 15.0938 11.8037 15.0938C13.2093 15.0938 14.5153 15.2598 15.7217 15.5918C16.9281 15.9128 17.9242 16.3776 18.71 16.9863L17.7637 17.7168C16.3802 16.765 14.3936 16.2891 11.8037 16.2891C10.1325 16.2891 8.90951 16.6211 8.13477 17.2852C7.37109 17.9382 6.98926 18.8014 6.98926 19.875C6.98926 20.9596 7.27148 21.8285 7.83594 22.4814C8.41146 23.1344 9.34668 23.4609 10.6416 23.4609ZM10.6416 25.8516H12.4678C14.0837 25.8516 15.2956 26.2998 16.1035 27.1963C16.9115 28.0928 17.3154 29.2383 17.3154 30.6328C17.3154 32.0495 16.8118 33.2005 15.8047 34.0859C14.8086 34.9714 13.3089 35.4141 11.3057 35.4141C9.90007 35.4141 8.58854 35.2536 7.37109 34.9326C6.16471 34.6006 5.16862 34.1302 4.38281 33.5215L5.3291 32.791C6.71257 33.7428 8.70475 34.2188 11.3057 34.2188C12.9769 34.2188 14.1943 33.8923 14.958 33.2393C15.7327 32.5752 16.1201 31.7064 16.1201 30.6328C16.1201 29.5592 15.8324 28.696 15.2568 28.043C14.6813 27.3789 13.7461 27.0469 12.4512 27.0469H10.6416C8.37272 27.0469 6.59635 26.3717 5.3125 25.0215C4.03971 23.6602 3.40332 21.9447 3.40332 19.875C3.40332 17.8053 4.13932 16.0954 5.61133 14.7451C7.08333 13.3838 9.14746 12.7031 11.8037 12.7031C13.5745 12.7031 15.2236 12.9466 16.751 13.4336C18.2894 13.9206 19.5677 14.6068 20.5859 15.4922L19.6562 16.2393C18.7487 15.4977 17.6087 14.9222 16.2363 14.5127C14.8639 14.1032 13.3864 13.8984 11.8037 13.8984C9.46842 13.8984 7.68099 14.4574 6.44141 15.5752C5.21289 16.693 4.59863 18.1263 4.59863 19.875C4.59863 21.6126 5.11882 23.0459 6.15918 24.1748C7.19954 25.2926 8.69368 25.8516 10.6416 25.8516ZM10.6416 28.2422H12.4678C13.32 28.2422 13.9342 28.4635 14.3105 28.9062C14.6868 29.349 14.875 29.9245 14.875 30.6328C14.875 32.2266 13.6852 33.0234 11.3057 33.0234C9.05892 33.0234 7.37109 32.6914 6.24219 32.0273L7.20508 31.2969C7.97982 31.651 9.34668 31.8281 11.3057 31.8281C12.2575 31.8281 12.8939 31.723 13.2148 31.5127C13.5469 31.3024 13.7129 31.0091 13.7129 30.6328C13.7129 30.2676 13.6188 29.9798 13.4307 29.7695C13.2536 29.5482 12.9215 29.4375 12.4346 29.4375H10.6416C9.11426 29.4375 7.73079 29.1885 6.49121 28.6904C5.2627 28.1924 4.25 27.5062 3.45312 26.6318C2.66732 25.7575 2.06413 24.7448 1.64355 23.5938C1.22298 22.4427 1.0127 21.2031 1.0127 19.875C1.0127 18.8125 1.16211 17.8053 1.46094 16.8535C1.75977 15.9017 2.20801 15.0273 2.80566 14.2305C3.41439 13.4336 4.13932 12.7474 4.98047 12.1719C5.83268 11.5853 6.83984 11.1315 8.00195 10.8105C9.17513 10.4785 10.4424 10.3125 11.8037 10.3125C13.9398 10.3125 15.9375 10.639 17.7969 11.292C19.6562 11.9339 21.2057 12.8359 22.4453 13.998L21.4824 14.7119C20.3535 13.6937 18.9424 12.9079 17.249 12.3545C15.5557 11.79 13.7406 11.5078 11.8037 11.5078C10.2874 11.5078 8.91504 11.7292 7.68652 12.1719C6.46908 12.6035 5.46191 13.2012 4.66504 13.9648C3.87923 14.7285 3.27051 15.6139 2.83887 16.6211C2.41829 17.6283 2.20801 18.7129 2.20801 19.875C2.20801 21.4355 2.52344 22.8411 3.1543 24.0918C3.78516 25.3424 4.74805 26.3496 6.04297 27.1133C7.33789 27.8659 8.87077 28.2422 10.6416 28.2422ZM33.1201 39H31.9248V11.5078H45.1562V12.7031H33.1201V13.8984H45.1562V15.0938H33.1201V16.2891H45.1562V17.4844H33.1201V23.4609H44.5918V24.6562H33.1201V25.8516H44.5918V27.0469H33.1201V28.2422H44.5918V29.4375H33.1201V39ZM30.7295 39H29.5342V11.5078H30.7295V39ZM28.3389 39H27.1436V11.5078H28.3389V39ZM25.9482 39H24.7529V11.5078H25.9482V39Z" fill="#ED7CFF"/>
</svg>
